<svg width="59" height="59" xmlns="http://www.w3.org/2000/svg">
 <!-- Created with Method Draw - http://github.com/duopixel/Method-Draw/ -->

 <g>
  <title>background</title>
  <rect x="-1" y="-1" width="61" height="61" id="canvas_background" fill="none"/>
  <g id="canvasGrid" display="none">
   <rect id="svg_1" width="100%" height="100%" x="0" y="0" stroke-width="0" fill="url(#gridpattern)"/>
  </g>
 </g>
 <g>
  <title>Layer 1</title>
  <style>.st0{fill:#FFFFFF;}</style>
  <g id="svg_7">
   <path class="st0" d="m24.139269,24.731618c-1.688186,0 -3.020964,1.480865 -3.020964,3.287519s1.362395,3.287519 3.020964,3.287519c1.688186,0 3.020964,-1.480865 3.020964,-3.287519c0.029617,-1.806655 -1.332778,-3.287519 -3.020964,-3.287519zm10.810311,0c-1.688186,0 -3.020964,1.480865 -3.020964,3.287519s1.362395,3.287519 3.020964,3.287519c1.688186,0 3.020964,-1.480865 3.020964,-3.287519s-1.332778,-3.287519 -3.020964,-3.287519z" id="svg_5"/>
   <path class="st0" d="m49.343584,-0.11729l-39.68717,0c-3.346754,0 -6.071545,2.724791 -6.071545,6.101162l0,40.042578c0,3.376371 2.724791,6.101162 6.071545,6.101162l33.586008,0l-1.569716,-5.479199l3.791013,3.524458l3.583692,3.317137l6.367718,5.627285l0,-53.13342c0,-3.376371 -2.724791,-6.101162 -6.071545,-6.101162l0,-0.000001zm-11.432274,38.680182s-1.066222,-1.273544 -1.954741,-2.399001c3.879865,-1.09584 5.36073,-3.524458 5.36073,-3.524458c-1.214309,0.799667 -2.369383,1.362395 -3.405988,1.74742c-1.480865,0.621963 -2.902495,1.036605 -4.294507,1.273544c-2.84326,0.533111 -5.449582,0.385025 -7.670878,-0.029617c-1.688186,-0.32579 -3.139433,-0.799667 -4.353742,-1.273544c-0.681198,-0.266556 -1.42163,-0.592346 -2.162062,-1.006988c-0.088852,-0.059235 -0.177704,-0.088852 -0.266556,-0.148086c-0.059235,-0.029617 -0.088852,-0.059235 -0.118469,-0.088852c-0.533111,-0.296173 -0.829284,-0.503494 -0.829284,-0.503494s1.42163,2.369383 5.183026,3.49484c-0.888519,1.125457 -1.984359,2.458235 -1.984359,2.458235c-6.545421,-0.207321 -9.033274,-4.501828 -9.033274,-4.501828c0,-9.536768 4.26489,-17.266881 4.26489,-17.266881c4.26489,-3.198667 8.322459,-3.109816 8.322459,-3.109816l0.296173,0.355407c-5.331112,1.540099 -7.789348,3.879865 -7.789348,3.879865s0.65158,-0.355407 1.74742,-0.858901c3.16905,-1.392013 5.68652,-1.777037 6.723125,-1.865889c0.177704,-0.029617 0.32579,-0.059235 0.503494,-0.059235c1.806655,-0.236938 3.850248,-0.296173 5.982693,-0.059235c2.813643,0.32579 5.834606,1.155074 8.914805,2.84326c0,0 -2.339766,-2.221297 -7.374705,-3.761396l0.414642,-0.473877s4.057569,-0.088852 8.322459,3.109816c0,0 4.26489,7.730113 4.26489,17.266881c0,0 -2.51747,4.294507 -9.062891,4.501828l-0.000002,0.000002z" id="svg_6"/>
  </g>
 </g>
</svg>