<svg width="266.893" height="266.895" xmlns="http://www.w3.org/2000/svg">

 <g>
  <title>background</title>
  <rect fill="none" id="canvas_background" height="402" width="582" y="-1" x="-1"/>
 </g>
 <g>
  <title>Layer 1</title>
  <path d="m248.082,262.307c7.854,0 14.223,-6.369 14.223,-14.225l0,-229.27c0,-7.857 -6.368,-14.224 -14.223,-14.224l-229.27,0c-7.857,0 -14.224,6.367 -14.224,14.224l0,229.27c0,7.855 6.366,14.225 14.224,14.225l229.27,0z" fill="#ffffff" id="Blue_1_"/>
  <path stroke="#000000" d="m182.863545,262.307l0,-99.803l33.499,0l5.016,-38.895l-38.515,0l0,-24.832c0,-11.261 3.127,-18.935 19.275,-18.935l20.596,-0.009l0,-34.788c-3.562,-0.474 -15.788,-1.533 -30.012,-1.533c-29.695,0 -50.025,18.126 -50.025,51.413l0,28.684l-33.585,0l0,38.895l33.585,0l0,99.803l40.166,0z" fill="#000000" id="f"/>
 </g>
</svg>