<svg width="40.00000000000001" height="40.00000000000001" xmlns="http://www.w3.org/2000/svg">
 <g>
  <title>background</title>
  <rect x="-1" y="-1" width="42" height="42" id="canvas_background" fill="none"/>
 </g>

 <g>
  <title>Layer 1</title>
  <g id="Layer_2">
   <ellipse fill="#FFFFFF" stroke="#ffffff" stroke-width="1.1" cx="24.51" cy="28.444001" rx="4.411" ry="5.324" id="svg_1"/>
   <g id="svg_2" stroke="null">
    <g id="svg_3" stroke="null">
     <path fill="#FFFFFF" d="m17.568,39.311001c0.063,-0.197 0.108,-0.4 0.108,-0.615c0,-1.359 -1.361,-2.463 -3.04,-2.463s-3.039,1.104 -3.039,2.463c0,0.215 0.044,0.418 0.108,0.615l5.863,0z" id="svg_4" stroke="#ffffff"/>
    </g>
    <g id="svg_5" stroke="null">
     <path fill="none" stroke-width="1.1" stroke-linecap="round" stroke-linejoin="round" d="m17.568,39.311001c0.063,-0.197 0.108,-0.4 0.108,-0.615c0,-1.359 -1.361,-2.463 -3.04,-2.463s-3.039,1.104 -3.039,2.463c0,0.215 0.044,0.418 0.108,0.615l5.863,0z" id="svg_6" stroke="#ffffff"/>
    </g>
   </g>
   <g id="svg_7">
    <g id="svg_8">
     <path fill="#FFFFFF" d="m28.214,39.311001c0.062,-0.197 0.107,-0.4 0.107,-0.615c0,-1.359 -1.361,-2.463 -3.041,-2.463c-1.679,0 -3.039,1.104 -3.039,2.463c0,0.215 0.043,0.418 0.107,0.615l5.866,0z" id="svg_9" stroke="#ffffff"/>
    </g>
    <g id="svg_10">
     <path fill="none" stroke="#ffffff" stroke-width="1.1" stroke-linecap="round" stroke-linejoin="round" d="m28.214,39.311001c0.062,-0.197 0.107,-0.4 0.107,-0.615c0,-1.359 -1.361,-2.463 -3.041,-2.463c-1.679,0 -3.039,1.104 -3.039,2.463c0,0.215 0.043,0.418 0.107,0.615l5.866,0z" id="svg_11"/>
    </g>
   </g>
   <circle fill="#FFFFFF" stroke="#ffffff" stroke-width="1.1" cx="8.949" cy="11.862001" r="2.702" id="svg_12"/>
   <circle fill="#FFFFFF" stroke="#ffffff" stroke-width="1.1" cx="31.051" cy="11.862001" r="2.702" id="svg_13"/>
   <path fill="none" stroke="#ffffff" stroke-width="1.1" stroke-linecap="round" stroke-linejoin="round" d="m27.491,2.378001c0,0 0,0 -5.404,-1.272l-1.986,6.278" id="svg_14"/>
   <ellipse fill="#FFFFFF" stroke="#ffffff" stroke-width="1.1" cx="15.411" cy="28.444001" rx="4.411" ry="5.324" id="svg_15"/>
   <circle fill="#FFFFFF" stroke="#ffffff" stroke-width="1.1" cx="29.696" cy="2.815001" r="2.13" id="svg_16"/>
   <g id="svg_17">
    <g id="svg_18">
     <path fill="#FFFFFF" d="m18.446,39.315001l2.99,0c2.655,-1.383 4.624,-6.34 4.624,-12.262c0,-6.99 -2.74,-12.655 -6.119,-12.655c-3.38,0 -6.119,5.666 -6.119,12.655c0,5.922 1.968,10.879 4.624,12.262z" id="svg_19"/>
    </g>
    <g id="svg_20">
     <path fill="none" stroke="#ffffff" stroke-width="1.1" d="m18.446,39.315001l2.99,0c2.655,-1.383 4.624,-6.34 4.624,-12.262c0,-6.99 -2.74,-12.655 -6.119,-12.655c-3.38,0 -6.119,5.666 -6.119,12.655c0,5.922 1.968,10.879 4.624,12.262z" id="svg_21"/>
    </g>
   </g>
   <ellipse fill="#FFFFFF" stroke="#ffffff" stroke-width="1.1" cx="19.941" cy="15.578001" rx="12.238" ry="7.987" id="svg_22"/>
   <line fill="none" stroke="#ffffff" stroke-width="1.1" stroke-linecap="round" stroke-linejoin="round" x1="16.722" y1="39.311001" x2="23.318" y2="39.311001" id="svg_23"/>
   <g id="svg_24"/>
  </g>
  <g id="Layer_3"/>
 </g>
</svg>